
<svg width="22px" height="17px" viewBox="0 0 22 17" version="1.1" xmlns="http://www.w3.org/2000/svg" xmlns:xlink="http://www.w3.org/1999/xlink">
    <!-- Generator: Sketch 46.2 (44496) - http://www.bohemiancoding.com/sketch -->
    <desc>Created with Sketch.</desc>
    <defs></defs>
    <g id="Page-1" stroke="none" stroke-width="1" fill="none" fill-rule="evenodd">
        <g id="Music-Player" transform="translate(-254.000000, -450.000000)" fill="#50E3C2">
            <path d="M266.1001,456.599985 C266.643543,455.716909 267.321503,455.500038 268.437658,455.500038 L271.187601,455.500038 L271.187601,457.562495 L276,453.849965 L271.187601,450 L271.187601,452.062534 L268.437658,452.062534 C267.576093,452.062534 266.617807,452.369747 265.863794,452.670431 C264.488822,453.217331 263.61435,454.158331 263.028885,455.499962 C262.714143,456.221864 262.648613,457.880541 262.195283,458.800031 C261.516402,460.175002 260.616117,460.999923 259.500038,460.999923 L254,460.999923 L254.000077,464.437505 L259.500038,464.437505 C260.017823,464.437505 261.182223,464.130214 261.936314,463.829454 C263.311285,463.282707 264.221249,462.352385 265.193439,460.230852 C265.607052,459.327418 265.824998,457.046862 266.1001,456.599985 L266.1001,456.599985 Z M261.608742,456.732043 C261.611892,456.713759 261.615196,456.695552 261.618422,456.678344 C261.72582,456.072444 261.828916,455.499885 262.020128,455.059461 C262.312284,454.389183 262.688177,453.832757 263.113697,453.336406 C262.754936,453.061458 262.370362,452.843359 261.936237,452.670354 C261.182146,452.36967 260.361527,452.062457 259.499962,452.062457 L254.000077,452.062457 L254,455.499885 L259.500038,455.499885 C260.320734,455.499885 261.023277,455.94899 261.608742,456.732043 L261.608742,456.732043 Z M271.187601,461 L268.300069,460.999923 C267.358992,460.999923 266.830529,460.819467 266.361066,460.241607 C266.309518,460.401705 266.254744,460.555274 266.193516,460.68956 C265.7176,461.727203 265.235308,462.524314 264.697012,463.160329 C265.043943,463.419144 265.418991,463.653376 265.86364,463.829531 C266.617731,464.130291 267.575939,464.437582 268.437505,464.437582 L271.187447,464.437582 L271.187447,466.500038 L275.999846,462.649996 L271.187447,458.937543 L271.187447,461 L271.187601,461 Z" id="Shuffle"></path>
        </g>
    </g>
</svg>