<svg t="1507876892105" class="icon" style="" viewBox="0 0 1024 1024" version="1.1" xmlns="http://www.w3.org/2000/svg" p-id="1011" xmlns:xlink="http://www.w3.org/1999/xlink" width="48" height="48"><defs><style type="text/css"></style></defs><path d="M849.321 374.925l-674.641 0 0-182.45 161.937 0 0-75.985 350.873 0 0 75.985 161.833 0 0 182.45zM231.154 318.398l561.638 0 0-69.447-161.831 0 0-75.985-237.87 0 0 75.985-161.937 0c0 0 0 69.447 0 69.447zM808.191 907.457l-592.381 0 0-560.795 56.475 0 0 504.32 479.431 0 0-504.32 56.475 0zM376.375 448.275l56.475 0 0 340.907-56.475 0 0-340.907zM591.149 448.275l56.475 0 0 340.907-56.475 0 0-340.907z" p-id="1012" fill="#ffffff"></path></svg>